<svg width="38" height="25" viewBox="0 0 38 25" fill="none" xmlns="http://www.w3.org/2000/svg">
<path d="M19.2323 0C10.899 0 3.78229 5.18333 0.898956 12.5C3.78229 19.8167 10.899 25 19.2323 25C27.5656 25 34.6823 19.8167 37.5656 12.5C34.6823 5.18333 27.5656 0 19.2323 0ZM19.2323 20.8333C14.6323 20.8333 10.899 17.1 10.899 12.5C10.899 7.9 14.6323 4.16667 19.2323 4.16667C23.8323 4.16667 27.5656 7.9 27.5656 12.5C27.5656 17.1 23.8323 20.8333 19.2323 20.8333ZM19.2323 7.5C16.4656 7.5 14.2323 9.73333 14.2323 12.5C14.2323 15.2667 16.4656 17.5 19.2323 17.5C21.999 17.5 24.2323 15.2667 24.2323 12.5C24.2323 9.73333 21.999 7.5 19.2323 7.5Z" fill="#323232"/>
</svg>
